# generated by tools/gen_cave.py
o cave_32
v 54.228 -3.250 32.000
v 54.250 -3.292 32.000
v 54.158 -3.000 32.000
v 54.146 -2.750 32.000
v 54.143 -2.500 32.000
v 54.160 -2.250 32.000
v 54.209 -2.000 32.000
v 54.250 -1.886 32.000
v 54.250 -3.250 32.061
v 54.250 -3.028 32.250
v 54.241 -3.000 32.250
v 54.217 -2.750 32.250
v 54.210 -2.500 32.250
v 54.233 -2.250 32.250
v 54.250 -2.178 32.250
v 54.250 -2.000 32.125
v 54.250 -3.000 32.271
v 54.250 -2.750 32.334
v 54.250 -2.500 32.351
v 54.250 -2.250 32.291
v 54.500 -3.493 32.000
v 54.305 -1.750 32.000
v 54.464 -1.500 32.000
v 54.500 -1.457 32.000
v 54.333 -3.250 32.250
v 54.500 -3.489 32.250
v 54.301 -2.000 32.250
v 54.426 -1.750 32.250
v 54.500 -1.646 32.250
v 54.500 -1.500 32.069
v 54.498 -3.250 32.500
v 54.500 -3.253 32.500
v 54.380 -3.000 32.500
v 54.338 -2.750 32.500
v 54.328 -2.500 32.500
v 54.368 -2.250 32.500
v 54.468 -2.000 32.500
v 54.500 -1.948 32.500
v 54.500 -1.750 32.352
v 54.500 -3.250 32.502
v 54.500 -3.000 32.635
v 54.500 -2.750 32.689
v 54.500 -2.500 32.698
v 54.500 -2.250 32.645
v 54.500 -2.000 32.533
v 54.750 -3.494 32.000
v 54.707 -1.250 32.000
v 54.750 -1.213 32.000
v 54.750 -3.496 32.250
v 54.637 -1.500 32.250
v 54.750 -1.400 32.250
v 54.750 -1.250 32.058
v 54.750 -3.483 32.500
v 54.684 -1.750 32.500
v 54.750 -1.694 32.500
v 54.750 -1.500 32.347
v 54.750 -3.250 32.667
v 54.703 -3.000 32.750
v 54.750 -3.050 32.750
v 54.610 -2.750 32.750
v 54.594 -2.500 32.750
v 54.697 -2.250 32.750
v 54.750 -2.192 32.750
v 54.750 -2.000 32.675
v 54.750 -1.750 32.538
v 54.750 -3.000 32.768
v 54.750 -2.750 32.802
v 54.750 -2.500 32.808
v 54.750 -2.250 32.769
v 55.000 -3.495 32.000
v 55.000 -1.065 32.000
v 55.000 -3.497 32.250
v 55.000 -1.262 32.250
v 55.000 -1.250 32.238
v 55.000 -3.496 32.500
v 55.000 -1.585 32.500
v 55.000 -1.500 32.444
v 55.000 -3.250 32.723
v 55.000 -3.173 32.750
v 55.000 -2.100 32.750
v 55.000 -2.000 32.716
v 55.000 -1.750 32.596
v 55.000 -3.000 32.804
v 55.000 -2.750 32.830
v 55.000 -2.500 32.832
v 55.000 -2.250 32.796
v 55.250 -3.496 32.000
v 55.078 -1.000 32.000
v 55.250 -0.901 32.000
v 55.250 -3.497 32.250
v 55.013 -1.250 32.250
v 55.250 -1.103 32.250
v 55.250 -1.000 32.136
v 55.250 -3.498 32.500
v 55.121 -1.500 32.500
v 55.250 -1.434 32.500
v 55.250 -1.250 32.378
v 55.250 -3.250 32.717
v 55.250 -3.147 32.750
v 55.250 -2.020 32.750
v 55.250 -2.000 32.746
v 55.250 -1.750 32.659
v 55.250 -1.500 32.540
v 55.250 -3.000 32.793
v 55.250 -2.750 32.818
v 55.250 -2.500 32.824
v 55.250 -2.250 32.802
v 55.439 -3.500 32.000
v 55.500 -3.501 32.000
v 55.354 -0.750 32.000
v 55.500 -0.653 32.000
v 55.500 -3.500 32.090
v 55.500 -3.498 32.250
v 55.297 -1.000 32.250
v 55.500 -0.824 32.250
v 55.500 -0.750 32.146
v 55.500 -3.498 32.500
v 55.323 -1.250 32.500
v 55.500 -1.078 32.500
v 55.500 -1.000 32.435
v 55.500 -3.250 32.667
v 55.500 -3.000 32.747
v 55.480 -3.000 32.750
v 55.500 -2.989 32.750
v 55.254 -2.000 32.750
v 55.335 -1.750 32.750
v 55.500 -1.507 32.750
v 55.500 -1.500 32.748
v 55.500 -1.250 32.625
v 55.500 -2.750 32.811
v 55.500 -2.500 32.862
v 55.500 -2.250 32.885
v 55.500 -2.000 32.878
v 55.500 -1.750 32.836
v 55.750 -3.508 32.000
v 55.750 -0.574 32.000
v 55.750 -3.500 32.197
v 55.750 -3.498 32.250
v 55.681 -0.750 32.250
v 55.750 -0.728 32.250
v 55.750 -3.403 32.500
v 55.632 -1.000 32.500
v 55.750 -0.956 32.500
v 55.750 -0.750 32.275
v 55.750 -3.250 32.587
v 55.750 -3.000 32.703
v 55.750 -2.880 32.750
v 55.505 -1.500 32.750
v 55.750 -1.331 32.750
v 55.750 -1.250 32.709
v 55.750 -1.000 32.540
v 55.750 -2.750 32.805
v 55.750 -2.500 32.884
v 55.750 -2.250 32.922
v 55.750 -2.000 32.929
v 55.750 -1.750 32.902
v 55.750 -1.500 32.837
v 56.000 -3.505 32.000
v 56.000 -0.609 32.000
v 56.000 -3.500 32.163
v 56.000 -3.498 32.250
v 55.869 -0.750 32.250
v 56.000 -0.774 32.250
v 56.000 -0.750 32.218
v 56.000 -3.250 32.491
v 55.970 -3.250 32.500
v 56.000 -3.239 32.500
v 55.957 -1.000 32.500
v 56.000 -1.011 32.500
v 56.000 -1.000 32.491
v 56.000 -3.000 32.640
v 56.000 -2.750 32.737
v 55.937 -2.750 32.750
v 56.000 -2.719 32.750
v 56.000 -1.413 32.750
v 56.000 -1.250 32.668
v 56.000 -2.500 32.836
v 56.000 -2.250 32.881
v 56.000 -2.000 32.890
v 56.000 -1.750 32.863
v 56.000 -1.500 32.794
v 56.250 -3.502 32.000
v 56.250 -0.661 32.000
v 56.250 -3.500 32.021
v 56.250 -3.469 32.250
v 56.250 -0.834 32.250
v 56.250 -0.750 32.138
v 56.250 -3.250 32.402
v 56.250 -3.111 32.500
v 56.250 -1.086 32.500
v 56.250 -1.000 32.426
v 56.250 -3.000 32.560
v 56.250 -2.750 32.674
v 56.250 -2.565 32.750
v 56.213 -1.500 32.750
v 56.250 -1.527 32.750
v 56.250 -1.500 32.740
v 56.250 -1.250 32.615
v 56.250 -2.500 32.775
v 56.250 -2.250 32.828
v 56.250 -2.000 32.840
v 56.250 -1.750 32.813
v 56.419 -3.500 32.000
v 56.500 -3.499 32.000
v 56.500 -0.735 32.000
v 56.500 -3.278 32.250
v 56.500 -0.918 32.250
v 56.500 -0.750 32.024
v 56.500 -3.250 32.270
v 56.500 -3.000 32.452
v 56.398 -3.000 32.500
v 56.500 -2.931 32.500
v 56.500 -1.187 32.500
v 56.500 -1.000 32.338
v 56.500 -2.750 32.590
v 56.500 -2.500 32.690
v 56.336 -2.500 32.750
v 56.500 -2.299 32.750
v 56.500 -1.748 32.750
v 56.500 -1.500 32.662
v 56.500 -1.250 32.545
v 56.500 -2.250 32.761
v 56.500 -2.000 32.776
v 56.500 -1.750 32.751
v 56.750 -3.272 32.000
v 56.542 -0.750 32.000
v 56.750 -0.879 32.000
v 56.750 -3.250 32.025
v 56.526 -3.250 32.250
v 56.750 -3.042 32.250
v 56.690 -1.000 32.250
v 56.750 -1.057 32.250
v 56.750 -1.000 32.190
v 56.750 -3.000 32.282
v 56.750 -2.750 32.449
v 56.698 -2.750 32.500
v 56.750 -2.675 32.500
v 56.626 -1.250 32.500
v 56.750 -1.376 32.500
v 56.750 -1.250 32.408
v 56.750 -2.500 32.567
v 56.750 -2.250 32.626
v 56.533 -2.250 32.750
v 56.750 -2.000 32.646
v 56.582 -2.000 32.750
v 56.750 -1.750 32.620
v 56.502 -1.750 32.750
v 56.750 -1.500 32.556
v 56.769 -3.250 32.000
v 56.916 -3.000 32.000
v 56.950 -2.750 32.000
v 56.950 -2.500 32.000
v 56.950 -2.250 32.000
v 56.950 -2.000 32.000
v 56.950 -1.750 32.000
v 56.950 -1.500 32.000
v 56.950 -1.250 32.000
v 56.923 -1.000 32.000
v 56.786 -3.000 32.250
v 56.918 -2.750 32.250
v 56.950 -2.500 32.250
v 56.950 -2.250 32.250
v 56.950 -2.000 32.250
v 56.950 -1.750 32.250
v 56.950 -1.500 32.250
v 56.933 -1.250 32.250
v 56.856 -2.500 32.500
v 56.921 -2.250 32.500
v 56.938 -2.000 32.500
v 56.928 -1.750 32.500
v 56.858 -1.500 32.500
vn 0.886 0.372 -0.277
vn 0.860 0.421 -0.289
vn 0.956 0.152 -0.249
vn 0.976 0.030 -0.215
vn 0.979 -0.026 -0.203
vn 0.968 -0.127 -0.216
vn 0.932 -0.264 -0.247
vn 0.904 -0.338 -0.262
vn 0.872 0.382 -0.307
vn 0.898 0.221 -0.380
vn 0.906 0.197 -0.375
vn 0.939 0.059 -0.339
vn 0.944 -0.029 -0.330
vn 0.922 -0.160 -0.353
vn 0.908 -0.204 -0.366
vn 0.904 -0.288 -0.317
vn 0.900 0.202 -0.387
vn 0.918 0.068 -0.390
vn 0.917 -0.034 -0.396
vn 0.909 -0.167 -0.381
vn 0.197 0.980 -0.002
vn 0.856 -0.429 -0.289
vn 0.740 -0.584 -0.332
vn 0.721 -0.605 -0.339
vn 0.797 0.426 -0.428
vn 0.412 0.868 -0.276
vn 0.855 -0.317 -0.410
vn 0.736 -0.476 -0.480
vn 0.678 -0.534 -0.505
vn 0.709 -0.592 -0.383
vn 0.644 0.458 -0.613
vn 0.642 0.460 -0.614
vn 0.779 0.247 -0.576
vn 0.837 0.085 -0.541
vn 0.842 -0.045 -0.538
vn 0.787 -0.213 -0.579
vn 0.659 -0.383 -0.647
vn 0.623 -0.413 -0.664
vn 0.654 -0.496 -0.572
vn 0.641 0.458 -0.616
vn 0.613 0.263 -0.745
vn 0.596 0.095 -0.797
vn 0.588 -0.063 -0.806
vn 0.595 -0.243 -0.766
vn 0.614 -0.390 -0.687
vn 0.004 1.000 0.006
vn 0.581 -0.710 -0.398
vn 0.553 -0.726 -0.408
vn 0.009 1.000 -0.011
vn 0.558 -0.609 -0.564
vn 0.471 -0.646 -0.600
vn 0.538 -0.713 -0.450
vn 0.287 0.857 -0.428
vn 0.417 -0.509 -0.753
vn 0.354 -0.525 -0.774
vn 0.426 -0.606 -0.672
vn 0.328 0.457 -0.827
vn 0.321 0.247 -0.914
vn 0.273 0.281 -0.920
vn 0.425 0.092 -0.900
vn 0.441 -0.066 -0.895
vn 0.304 -0.248 -0.920
vn 0.242 -0.281 -0.929
vn 0.274 -0.393 -0.878
vn 0.334 -0.502 -0.798
vn 0.263 0.240 -0.935
vn 0.234 0.083 -0.969
vn 0.224 -0.064 -0.972
vn 0.234 -0.244 -0.941
vn 0.004 1.000 0.008
vn 0.512 -0.737 -0.441
vn 0.004 1.000 0.002
vn 0.437 -0.635 -0.636
vn 0.442 -0.642 -0.627
vn 0.017 0.952 -0.306
vn 0.297 -0.509 -0.808
vn 0.325 -0.542 -0.775
vn 0.074 0.429 -0.901
vn 0.061 0.342 -0.938
vn 0.098 -0.307 -0.947
vn 0.134 -0.360 -0.923
vn 0.236 -0.455 -0.859
vn 0.043 0.205 -0.978
vn 0.024 0.060 -0.998
vn 0.024 -0.067 -0.997
vn 0.061 -0.224 -0.973
vn 0.017 1.000 -0.002
vn 0.678 -0.627 -0.383
vn 0.773 -0.536 -0.340
vn 0.003 1.000 0.003
vn 0.485 -0.618 -0.619
vn 0.753 -0.466 -0.465
vn 0.762 -0.501 -0.410
vn 0.003 0.949 -0.317
vn 0.601 -0.423 -0.679
vn 0.716 -0.366 -0.595
vn 0.744 -0.411 -0.527
vn -0.103 0.421 -0.901
vn -0.106 0.305 -0.946
vn 0.478 -0.230 -0.848
vn 0.493 -0.237 -0.837
vn 0.633 -0.302 -0.713
vn 0.708 -0.351 -0.613
vn -0.111 0.191 -0.975
vn -0.039 0.061 -0.997
vn 0.111 -0.034 -0.993
vn 0.310 -0.145 -0.940
vn 0.017 0.998 -0.056
vn 0.019 0.997 -0.069
vn 0.556 -0.721 -0.413
vn 0.415 -0.793 -0.447
vn 0.013 0.999 -0.049
vn 0.002 1.000 -0.008
vn 0.639 -0.564 -0.523
vn 0.400 -0.704 -0.587
vn 0.403 -0.751 -0.523
vn -0.108 0.897 -0.429
vn 0.576 -0.462 -0.674
vn 0.402 -0.568 -0.718
vn 0.399 -0.617 -0.679
vn -0.232 0.461 -0.857
vn -0.201 0.254 -0.946
vn -0.198 0.247 -0.948
vn -0.192 0.251 -0.949
vn 0.485 -0.232 -0.843
vn 0.478 -0.268 -0.836
vn 0.393 -0.355 -0.848
vn 0.394 -0.359 -0.846
vn 0.404 -0.488 -0.774
vn -0.024 0.209 -0.978
vn 0.114 0.131 -0.985
vn 0.218 0.025 -0.976
vn 0.305 -0.103 -0.947
vn 0.367 -0.232 -0.901
vn 0.005 0.992 -0.129
vn 0.043 -0.867 -0.496
vn 0.000 0.994 -0.105
vn -0.001 0.995 -0.100
vn 0.100 -0.775 -0.624
vn 0.041 -0.781 -0.623
vn -0.272 0.683 -0.678
vn 0.155 -0.649 -0.745
vn 0.038 -0.668 -0.743
vn 0.039 -0.773 -0.633
vn -0.267 0.533 -0.802
vn -0.199 0.389 -0.899
vn -0.154 0.359 -0.920
vn 0.383 -0.360 -0.851
vn 0.035 -0.481 -0.876
vn 0.034 -0.531 -0.846
vn 0.038 -0.650 -0.759
vn -0.118 0.337 -0.934
vn -0.071 0.220 -0.973
vn -0.037 0.103 -0.994
vn -0.010 -0.054 -0.998
vn 0.012 -0.223 -0.975
vn 0.031 -0.373 -0.927
vn -0.008 0.993 -0.115
vn -0.187 -0.844 -0.502
vn -0.027 0.982 -0.188
vn -0.043 0.969 -0.243
vn -0.045 -0.774 -0.632
vn -0.168 -0.757 -0.632
vn -0.167 -0.770 -0.616
vn -0.282 0.540 -0.793
vn -0.279 0.538 -0.795
vn -0.282 0.530 -0.800
vn -0.122 -0.654 -0.747
vn -0.166 -0.646 -0.745
vn -0.166 -0.651 -0.741
vn -0.275 0.427 -0.861
vn -0.237 0.374 -0.897
vn -0.196 0.372 -0.907
vn -0.232 0.360 -0.904
vn -0.180 -0.432 -0.883
vn -0.188 -0.530 -0.827
vn -0.231 0.256 -0.939
vn -0.229 0.116 -0.966
vn -0.226 -0.048 -0.973
vn -0.216 -0.220 -0.951
vn -0.190 -0.378 -0.906
vn -0.010 0.992 -0.129
vn -0.262 -0.824 -0.503
vn -0.030 0.988 -0.152
vn -0.317 0.812 -0.490
vn -0.241 -0.734 -0.635
vn -0.238 -0.779 -0.581
vn -0.360 0.555 -0.750
vn -0.325 0.499 -0.803
vn -0.228 -0.617 -0.754
vn -0.230 -0.657 -0.718
vn -0.316 0.464 -0.827
vn -0.304 0.390 -0.870
vn -0.270 0.323 -0.907
vn -0.218 -0.386 -0.896
vn -0.228 -0.369 -0.901
vn -0.229 -0.386 -0.894
vn -0.243 -0.535 -0.809
vn -0.269 0.297 -0.916
vn -0.280 0.135 -0.950
vn -0.279 -0.041 -0.959
vn -0.261 -0.218 -0.940
vn -0.232 0.934 -0.270
vn -0.350 0.873 -0.341
vn -0.336 -0.797 -0.502
vn -0.487 0.574 -0.659
vn -0.338 -0.700 -0.629
vn -0.331 -0.790 -0.516
vn -0.479 0.565 -0.671
vn -0.422 0.487 -0.765
vn -0.354 0.490 -0.796
vn -0.404 0.467 -0.787
vn -0.317 -0.573 -0.756
vn -0.327 -0.663 -0.673
vn -0.399 0.405 -0.822
vn -0.373 0.310 -0.874
vn -0.285 0.310 -0.907
vn -0.345 0.188 -0.920
vn -0.321 -0.216 -0.922
vn -0.340 -0.384 -0.858
vn -0.322 -0.540 -0.778
vn -0.347 0.156 -0.925
vn -0.349 -0.029 -0.937
vn -0.321 -0.214 -0.922
vn -0.703 0.551 -0.450
vn -0.346 -0.793 -0.502
vn -0.526 -0.716 -0.458
vn -0.695 0.546 -0.467
vn -0.493 0.569 -0.658
vn -0.651 0.493 -0.577
vn -0.414 -0.668 -0.619
vn -0.484 -0.635 -0.602
vn -0.481 -0.657 -0.581
vn -0.639 0.483 -0.598
vn -0.589 0.402 -0.701
vn -0.510 0.421 -0.750
vn -0.569 0.386 -0.726
vn -0.369 -0.544 -0.754
vn -0.489 -0.469 -0.735
vn -0.504 -0.518 -0.692
vn -0.584 0.301 -0.754
vn -0.577 0.149 -0.803
vn -0.358 0.159 -0.920
vn -0.560 -0.016 -0.828
vn -0.377 -0.024 -0.926
vn -0.551 -0.187 -0.814
vn -0.322 -0.214 -0.922
vn -0.523 -0.371 -0.767
vn -0.708 0.544 -0.450
vn -0.905 0.319 -0.282
vn -0.996 0.067 -0.063
vn -1.000 -0.000 -0.000
vn -1.000 -0.000 -0.000
vn -1.000 -0.000 -0.000
vn -1.000 -0.000 -0.000
vn -1.000 -0.000 -0.000
vn -0.998 -0.055 -0.035
vn -0.746 -0.557 -0.367
vn -0.669 0.483 -0.565
vn -0.877 0.278 -0.393
vn -0.982 0.062 -0.176
vn -0.998 -0.000 -0.057
vn -1.000 -0.000 -0.024
vn -0.999 -0.000 -0.044
vn -0.984 -0.034 -0.174
vn -0.797 -0.390 -0.461
vn -0.697 0.294 -0.655
vn -0.822 0.132 -0.553
vn -0.855 0.011 -0.518
vn -0.804 -0.125 -0.581
vn -0.627 -0.355 -0.694
f 9//9 2//2 1//1
f 11//11 10//10 9//9
f 1//1 11//11 9//9
f 3//3 11//11 1//1
f 12//12 3//3 4//4
f 11//11 3//3 12//12
f 13//13 4//4 5//5
f 12//12 4//4 13//13
f 14//14 5//5 6//6
f 13//13 5//5 14//14
f 7//7 16//16 15//15
f 14//14 7//7 15//15
f 6//6 7//7 14//14
f 16//16 7//7 8//8
f 17//17 10//10 11//11
f 17//17 11//11 12//12
f 17//17 12//12 18//18
f 18//18 12//12 13//13
f 18//18 13//13 19//19
f 19//19 13//13 14//14
f 19//19 14//14 20//20
f 20//20 14//14 15//15
f 2//2 9//9 25//25
f 26//26 2//2 25//25
f 21//21 2//2 26//26
f 10//10 25//25 9//9
f 27//27 15//15 16//16
f 8//8 22//22 16//16
f 22//22 27//27 16//16
f 22//22 28//28 27//27
f 23//23 30//30 29//29
f 28//28 23//23 29//29
f 22//22 23//23 28//28
f 30//30 23//23 24//24
f 26//26 25//25 31//31
f 26//26 31//31 32//32
f 17//17 33//33 10//10
f 33//33 25//25 10//10
f 33//33 31//31 25//25
f 18//18 34//34 17//17
f 17//17 34//34 33//33
f 19//19 35//35 18//18
f 18//18 35//35 34//34
f 20//20 36//36 19//19
f 19//19 36//36 35//35
f 15//15 27//27 20//20
f 27//27 36//36 20//20
f 27//27 37//37 36//36
f 28//28 39//39 38//38
f 37//37 28//28 38//38
f 27//27 28//28 37//37
f 39//39 28//28 29//29
f 40//40 32//32 31//31
f 40//40 31//31 33//33
f 40//40 33//33 41//41
f 41//41 33//33 34//34
f 41//41 34//34 42//42
f 42//42 34//34 35//35
f 42//42 35//35 43//43
f 43//43 35//35 36//36
f 43//43 36//36 44//44
f 44//44 36//36 37//37
f 44//44 37//37 45//45
f 45//45 37//37 38//38
f 26//26 46//46 21//21
f 26//26 49//49 46//46
f 50//50 29//29 30//30
f 51//51 50//50 30//30
f 51//51 30//30 24//24
f 52//52 51//51 24//24
f 47//47 52//52 24//24
f 52//52 47//47 48//48
f 32//32 49//49 26//26
f 32//32 53//53 49//49
f 54//54 38//38 39//39
f 55//55 54//54 39//39
f 55//55 39//39 29//29
f 56//56 55//55 29//29
f 50//50 56//56 29//29
f 56//56 50//50 51//51
f 57//57 53//53 32//32
f 57//57 32//32 40//40
f 59//59 57//57 58//58
f 57//57 41//41 58//58
f 57//57 40//40 41//41
f 42//42 60//60 41//41
f 41//41 60//60 58//58
f 43//43 61//61 42//42
f 42//42 61//61 60//60
f 44//44 62//62 43//43
f 43//43 62//62 61//61
f 62//62 44//44 63//63
f 44//44 64//64 63//63
f 44//44 45//45 64//64
f 45//45 38//38 54//54
f 65//65 45//45 54//54
f 64//64 45//45 65//65
f 65//65 54//54 55//55
f 66//66 59//59 58//58
f 66//66 58//58 60//60
f 66//66 60//60 67//67
f 67//67 60//60 61//61
f 67//67 61//61 68//68
f 68//68 61//61 62//62
f 68//68 62//62 69//69
f 69//69 62//62 63//63
f 49//49 70//70 46//46
f 49//49 72//72 70//70
f 74//74 73//73 52//52
f 52//52 73//73 51//51
f 52//52 48//48 71//71
f 52//52 71//71 74//74
f 53//53 72//72 49//49
f 53//53 75//75 72//72
f 77//77 76//76 56//56
f 56//56 76//76 55//55
f 56//56 51//51 73//73
f 56//56 73//73 77//77
f 78//78 75//75 53//53
f 78//78 53//53 57//57
f 57//57 59//59 78//78
f 78//78 59//59 79//79
f 81//81 80//80 64//64
f 64//64 80//80 63//63
f 82//82 64//64 65//65
f 82//82 81//81 64//64
f 65//65 55//55 76//76
f 65//65 76//76 82//82
f 83//83 79//79 59//59
f 83//83 59//59 66//66
f 84//84 66//66 67//67
f 84//84 83//83 66//66
f 85//85 67//67 68//68
f 85//85 84//84 67//67
f 86//86 68//68 69//69
f 86//86 85//85 68//68
f 69//69 63//63 80//80
f 69//69 80//80 86//86
f 72//72 87//87 70//70
f 72//72 90//90 87//87
f 91//91 73//73 74//74
f 92//92 91//91 74//74
f 92//92 74//74 71//71
f 93//93 92//92 71//71
f 88//88 93//93 71//71
f 93//93 88//88 89//89
f 75//75 90//90 72//72
f 75//75 94//94 90//90
f 95//95 76//76 77//77
f 96//96 95//95 77//77
f 96//96 77//77 73//73
f 97//97 96//96 73//73
f 91//91 97//97 73//73
f 97//97 91//91 92//92
f 98//98 94//94 75//75
f 98//98 75//75 78//78
f 78//78 79//79 98//98
f 98//98 79//79 99//99
f 101//101 100//100 81//81
f 81//81 100//100 80//80
f 102//102 81//81 82//82
f 102//102 101//101 81//81
f 82//82 76//76 95//95
f 103//103 82//82 95//95
f 102//102 82//82 103//103
f 103//103 95//95 96//96
f 104//104 99//99 79//79
f 104//104 79//79 83//83
f 105//105 83//83 84//84
f 105//105 104//104 83//83
f 106//106 84//84 85//85
f 106//106 105//105 84//84
f 107//107 85//85 86//86
f 107//107 106//106 85//85
f 86//86 80//80 100//100
f 86//86 100//100 107//107
f 112//112 109//109 108//108
f 108//108 87//87 112//112
f 87//87 113//113 112//112
f 87//87 90//90 113//113
f 114//114 92//92 93//93
f 115//115 114//114 93//93
f 115//115 93//93 89//89
f 116//116 115//115 89//89
f 110//110 116//116 89//89
f 116//116 110//110 111//111
f 94//94 113//113 90//90
f 94//94 117//117 113//113
f 118//118 96//96 97//97
f 119//119 118//118 97//97
f 119//119 97//97 92//92
f 120//120 119//119 92//92
f 114//114 120//120 92//92
f 120//120 114//114 115//115
f 121//121 117//117 94//94
f 121//121 94//94 98//98
f 123//123 122//122 99//99
f 122//122 98//98 99//99
f 122//122 121//121 98//98
f 123//123 124//124 122//122
f 125//125 100//100 101//101
f 102//102 126//126 101//101
f 101//101 126//126 125//125
f 126//126 102//102 127//127
f 102//102 128//128 127//127
f 102//102 103//103 128//128
f 103//103 96//96 118//118
f 129//129 103//103 118//118
f 128//128 103//103 129//129
f 129//129 118//118 119//119
f 104//104 123//123 99//99
f 130//130 124//124 123//123
f 104//104 130//130 123//123
f 105//105 130//130 104//104
f 131//131 105//105 106//106
f 131//131 130//130 105//105
f 132//132 106//106 107//107
f 132//132 131//131 106//106
f 107//107 100//100 125//125
f 133//133 107//107 125//125
f 132//132 107//107 133//133
f 133//133 125//125 126//126
f 133//133 126//126 134//134
f 134//134 126//126 127//127
f 137//137 135//135 109//109
f 137//137 109//109 112//112
f 112//112 113//113 137//137
f 137//137 113//113 138//138
f 139//139 115//115 116//116
f 140//140 139//139 116//116
f 111//111 140//140 116//116
f 136//136 140//140 111//111
f 117//117 138//138 113//113
f 117//117 141//141 138//138
f 142//142 119//119 120//120
f 143//143 142//142 120//120
f 143//143 120//120 115//115
f 144//144 143//143 115//115
f 139//139 144//144 115//115
f 144//144 139//139 140//140
f 145//145 141//141 117//117
f 145//145 117//117 121//121
f 146//146 121//121 122//122
f 146//146 145//145 121//121
f 122//122 124//124 146//146
f 146//146 124//124 147//147
f 148//148 127//127 128//128
f 148//148 128//128 149//149
f 128//128 150//150 149//149
f 128//128 129//129 150//150
f 129//129 119//119 142//142
f 151//151 129//129 142//142
f 150//150 129//129 151//151
f 151//151 142//142 143//143
f 152//152 147//147 124//124
f 152//152 124//124 130//130
f 153//153 130//130 131//131
f 153//153 152//152 130//130
f 154//154 131//131 132//132
f 154//154 153//153 131//131
f 155//155 132//132 133//133
f 155//155 154//154 132//132
f 156//156 133//133 134//134
f 156//156 155//155 133//133
f 134//134 127//127 148//148
f 157//157 134//134 148//148
f 156//156 134//134 157//157
f 157//157 148//148 149//149
f 160//160 158//158 135//135
f 160//160 135//135 137//137
f 137//137 138//138 160//160
f 160//160 138//138 161//161
f 164//164 163//163 162//162
f 159//159 164//164 162//162
f 140//140 159//159 162//162
f 136//136 159//159 140//140
f 141//141 166//166 165//165
f 161//161 141//141 165//165
f 138//138 141//141 161//161
f 166//166 167//167 165//165
f 170//170 169//169 168//168
f 170//170 168//168 163//163
f 163//163 168//168 162//162
f 168//168 143//143 162//162
f 143//143 144//144 162//162
f 162//162 144//144 140//140
f 145//145 166//166 141//141
f 171//171 167//167 166//166
f 145//145 171//171 166//166
f 146//146 171//171 145//145
f 173//173 172//172 147//147
f 172//172 146//146 147//147
f 172//172 171//171 146//146
f 173//173 174//174 172//172
f 176//176 175//175 150//150
f 150//150 175//175 149//149
f 151//151 168//168 169//169
f 176//176 151//151 169//169
f 150//150 151//151 176//176
f 168//168 151//151 143//143
f 152//152 173//173 147//147
f 177//177 174//174 173//173
f 152//152 177//177 173//173
f 153//153 177//177 152//152
f 178//178 153//153 154//154
f 178//178 177//177 153//153
f 179//179 154//154 155//155
f 179//179 178//178 154//154
f 180//180 155//155 156//156
f 180//180 179//179 155//155
f 181//181 156//156 157//157
f 181//181 180//180 156//156
f 157//157 149//149 175//175
f 157//157 175//175 181//181
f 184//184 182//182 158//158
f 184//184 158//158 160//160
f 160//160 161//161 184//184
f 184//184 161//161 185//185
f 187//187 186//186 164//164
f 164//164 186//186 163//163
f 164//164 159//159 183//183
f 164//164 183//183 187//187
f 188//188 185//185 161//161
f 188//188 161//161 165//165
f 165//165 167//167 188//188
f 188//188 167//167 189//189
f 191//191 190//190 170//170
f 170//170 190//190 169//169
f 170//170 163//163 186//186
f 170//170 186//186 191//191
f 192//192 189//189 167//167
f 192//192 167//167 171//171
f 193//193 171//171 172//172
f 193//193 192//192 171//171
f 172//172 174//174 193//193
f 193//193 174//174 194//194
f 197//197 196//196 195//195
f 175//175 176//176 195//195
f 176//176 197//197 195//195
f 176//176 198//198 197//197
f 176//176 169//169 190//190
f 176//176 190//190 198//198
f 199//199 194//194 174//174
f 199//199 174//174 177//177
f 200//200 177//177 178//178
f 200//200 199//199 177//177
f 201//201 178//178 179//179
f 201//201 200//200 178//178
f 202//202 179//179 180//180
f 202//202 201//201 179//179
f 181//181 195//195 196//196
f 202//202 181//181 196//196
f 180//180 181//181 202//202
f 195//195 181//181 175//175
f 184//184 203//203 182//182
f 184//184 185//185 203//203
f 185//185 204//204 203//203
f 185//185 206//206 204//204
f 208//208 207//207 187//187
f 187//187 207//207 186//186
f 187//187 183//183 205//205
f 187//187 205//205 208//208
f 209//209 206//206 185//185
f 209//209 185//185 188//188
f 211//211 210//210 189//189
f 210//210 188//188 189//189
f 210//210 209//209 188//188
f 211//211 212//212 210//210
f 214//214 213//213 191//191
f 191//191 213//213 190//190
f 191//191 186//186 207//207
f 191//191 207//207 214//214
f 192//192 211//211 189//189
f 215//215 212//212 211//211
f 192//192 215//215 211//211
f 193//193 215//215 192//192
f 217//217 216//216 194//194
f 216//216 193//193 194//194
f 216//216 215//215 193//193
f 217//217 218//218 216//216
f 220//220 219//219 197//197
f 197//197 219//219 196//196
f 221//221 197//197 198//198
f 221//221 220//220 197//197
f 198//198 190//190 213//213
f 198//198 213//213 221//221
f 199//199 217//217 194//194
f 222//222 218//218 217//217
f 199//199 222//222 217//217
f 200//200 222//222 199//199
f 223//223 200//200 201//201
f 223//223 222//222 200//200
f 224//224 201//201 202//202
f 224//224 223//223 201//201
f 202//202 196//196 219//219
f 202//202 219//219 224//224
f 206//206 229//229 228//228
f 225//225 206//206 228//228
f 204//204 206//206 225//225
f 229//229 230//230 228//228
f 233//233 232//232 231//231
f 233//233 231//231 227//227
f 227//227 231//231 226//226
f 231//231 207//207 226//226
f 207//207 208//208 226//226
f 226//226 208//208 205//205
f 209//209 229//229 206//206
f 234//234 230//230 229//229
f 209//209 234//234 229//229
f 210//210 234//234 209//209
f 236//236 235//235 212//212
f 235//235 210//210 212//212
f 235//235 234//234 210//210
f 236//236 237//237 235//235
f 240//240 239//239 238//238
f 240//240 238//238 232//232
f 232//232 238//238 231//231
f 238//238 213//213 231//231
f 213//213 214//214 231//231
f 231//231 214//214 207//207
f 215//215 236//236 212//212
f 241//241 237//237 236//236
f 215//215 241//241 236//236
f 216//216 241//241 215//215
f 243//243 242//242 218//218
f 242//242 216//216 218//218
f 242//242 241//241 216//216
f 245//245 244//244 243//243
f 243//243 244//244 242//242
f 247//247 246//246 245//245
f 245//245 246//246 244//244
f 219//219 220//220 247//247
f 220//220 246//246 247//247
f 220//220 248//248 246//246
f 221//221 238//238 239//239
f 248//248 221//221 239//239
f 220//220 221//221 248//248
f 238//238 221//221 213//213
f 222//222 243//243 218//218
f 243//243 222//222 223//223
f 243//243 223//223 245//245
f 245//245 223//223 224//224
f 245//245 224//224 247//247
f 247//247 224//224 219//219
f 228//228 249//249 225//225
f 249//249 228//228 230//230
f 259//259 249//249 230//230
f 250//250 249//249 259//259
f 250//250 260//260 251//251
f 250//250 259//259 260//260
f 251//251 261//261 252//252
f 251//251 260//260 261//261
f 252//252 262//262 253//253
f 252//252 261//261 262//262
f 253//253 263//263 254//254
f 253//253 262//262 263//263
f 254//254 264//264 255//255
f 254//254 263//263 264//264
f 255//255 265//265 256//256
f 255//255 264//264 265//265
f 256//256 266//266 257//257
f 256//256 265//265 266//266
f 266//266 232//232 233//233
f 258//258 266//266 233//233
f 257//257 266//266 258//258
f 258//258 233//233 227//227
f 234//234 259//259 230//230
f 259//259 234//234 235//235
f 259//259 235//235 260//260
f 260//260 235//235 237//237
f 267//267 260//260 237//237
f 261//261 260//260 267//267
f 261//261 268//268 262//262
f 261//261 267//267 268//268
f 262//262 269//269 263//263
f 262//262 268//268 269//269
f 263//263 270//270 264//264
f 263//263 269//269 270//270
f 264//264 271//271 265//265
f 264//264 270//270 271//271
f 271//271 239//239 240//240
f 266//266 271//271 240//240
f 265//265 271//271 266//266
f 266//266 240//240 232//232
f 241//241 267//267 237//237
f 267//267 241//241 242//242
f 267//267 242//242 268//268
f 268//268 242//242 244//244
f 268//268 244//244 269//269
f 269//269 244//244 246//246
f 269//269 246//246 270//270
f 270//270 246//246 248//248
f 270//270 248//248 271//271
f 271//271 248//248 239//239
